<svg width="48" height="48" viewBox="0 0 48 48" fill="none" xmlns="http://www.w3.org/2000/svg">
<rect x="38.2319" y="18.7986" width="7.30038" height="29.2015" fill="url(#paint0_linear_2457_905)"/>
<rect x="26.9165" y="26.0989" width="7.6654" height="21.9011" fill="url(#paint1_linear_2457_905)"/>
<rect x="15.9658" y="33.3992" width="7.6654" height="14.6008" fill="url(#paint2_linear_2457_905)"/>
<rect x="5.01538" y="38.5095" width="7.6654" height="9.49049" fill="url(#paint3_linear_2457_905)"/>
<path d="M39.3269 16.7909L34.3992 12.7757L39.3269 6.02281L36.9543 4.19772L47.9049 0L46.6273 11.8631L44.2547 9.85551L39.3269 16.7909Z" fill="#803A6A"/>
<path d="M36.5894 13.688C29.8365 21.3534 19.981 29.7488 1 31.0264C21.5871 32.6325 34.5209 21.11 38.4144 15.1481L36.5894 13.688Z" fill="#803A6A"/>
<defs>
<linearGradient id="paint0_linear_2457_905" x1="39.964" y1="42.1765" x2="47.6419" y2="40.3721" gradientUnits="userSpaceOnUse">
<stop stop-color="#DF286A"/>
<stop offset="0.0001" stop-color="#DF286A"/>
<stop offset="0.479167" stop-color="#E3484D"/>
<stop offset="0.479267" stop-color="#E3484D"/>
<stop offset="1" stop-color="#E86A2D"/>
</linearGradient>
<linearGradient id="paint1_linear_2457_905" x1="28.7352" y1="43.6323" x2="36.4113" y2="41.1068" gradientUnits="userSpaceOnUse">
<stop stop-color="#DF286A"/>
<stop offset="0.0001" stop-color="#DF286A"/>
<stop offset="0.479167" stop-color="#E3484D"/>
<stop offset="0.479267" stop-color="#E3484D"/>
<stop offset="1" stop-color="#E86A2D"/>
</linearGradient>
<linearGradient id="paint2_linear_2457_905" x1="17.7845" y1="45.0881" x2="24.6254" y2="41.712" gradientUnits="userSpaceOnUse">
<stop stop-color="#DF286A"/>
<stop offset="0.0001" stop-color="#DF286A"/>
<stop offset="0.479167" stop-color="#E3484D"/>
<stop offset="0.479267" stop-color="#E3484D"/>
<stop offset="1" stop-color="#E86A2D"/>
</linearGradient>
<linearGradient id="paint3_linear_2457_905" x1="6.83403" y1="46.1073" x2="12.2303" y2="42.0102" gradientUnits="userSpaceOnUse">
<stop stop-color="#DF286A"/>
<stop offset="0.0001" stop-color="#DF286A"/>
<stop offset="0.479167" stop-color="#E3484D"/>
<stop offset="0.479267" stop-color="#E3484D"/>
<stop offset="1" stop-color="#E86A2D"/>
</linearGradient>
</defs>
</svg>
